<mxfile host="Electron" modified="2024-01-24T18:02:29.315Z" agent="Mozilla/5.0 (Windows NT 10.0; Win64; x64) AppleWebKit/537.36 (KHTML, like Gecko) draw.io/22.1.18 Chrome/120.0.6099.199 Electron/28.1.2 Safari/537.36" etag="x0Ozz_aC6bAEHlObOvRU" version="22.1.18" type="device">
  <diagram name="Page-1" id="mMyNr0NCJUbefCslI5z5">
    <mxGraphModel dx="500" dy="296" grid="1" gridSize="10" guides="1" tooltips="1" connect="1" arrows="1" fold="1" page="1" pageScale="1" pageWidth="827" pageHeight="1169" math="0" shadow="0">
      <root>
        <mxCell id="0" />
        <mxCell id="1" parent="0" />
        <mxCell id="R-2TuFLWC6VMuoLLotZT-1" value="&lt;font style=&quot;font-size: 25px;&quot;&gt;x&lt;/font&gt;" style="text;html=1;align=center;verticalAlign=middle;resizable=0;points=[];autosize=1;strokeColor=none;fillColor=none;" vertex="1" parent="1">
          <mxGeometry x="320" y="120" width="40" height="40" as="geometry" />
        </mxCell>
        <mxCell id="R-2TuFLWC6VMuoLLotZT-2" value="&lt;font style=&quot;font-size: 25px;&quot;&gt;y&lt;/font&gt;" style="text;html=1;align=center;verticalAlign=middle;resizable=0;points=[];autosize=1;strokeColor=none;fillColor=none;" vertex="1" parent="1">
          <mxGeometry x="320" y="200" width="40" height="40" as="geometry" />
        </mxCell>
        <mxCell id="R-2TuFLWC6VMuoLLotZT-3" value="&lt;font style=&quot;font-size: 25px;&quot;&gt;z&lt;/font&gt;" style="text;html=1;align=center;verticalAlign=middle;resizable=0;points=[];autosize=1;strokeColor=none;fillColor=none;" vertex="1" parent="1">
          <mxGeometry x="320" y="280" width="40" height="40" as="geometry" />
        </mxCell>
        <mxCell id="R-2TuFLWC6VMuoLLotZT-4" value="" style="verticalLabelPosition=bottom;shadow=0;dashed=0;align=center;html=1;verticalAlign=top;shape=mxgraph.electrical.logic_gates.logic_gate;operation=and;" vertex="1" parent="1">
          <mxGeometry x="440" y="150" width="70" height="40" as="geometry" />
        </mxCell>
        <mxCell id="R-2TuFLWC6VMuoLLotZT-11" style="edgeStyle=orthogonalEdgeStyle;rounded=1;orthogonalLoop=1;jettySize=auto;html=1;exitX=0;exitY=0.25;exitDx=0;exitDy=0;exitPerimeter=0;curved=0;endArrow=none;endFill=0;" edge="1" parent="1" source="R-2TuFLWC6VMuoLLotZT-5">
          <mxGeometry relative="1" as="geometry">
            <mxPoint x="390" y="220" as="targetPoint" />
          </mxGeometry>
        </mxCell>
        <mxCell id="R-2TuFLWC6VMuoLLotZT-12" style="edgeStyle=orthogonalEdgeStyle;rounded=1;orthogonalLoop=1;jettySize=auto;html=1;exitX=0;exitY=0.75;exitDx=0;exitDy=0;exitPerimeter=0;endArrow=oval;endFill=0;curved=0;" edge="1" parent="1" source="R-2TuFLWC6VMuoLLotZT-5" target="R-2TuFLWC6VMuoLLotZT-3">
          <mxGeometry relative="1" as="geometry" />
        </mxCell>
        <mxCell id="R-2TuFLWC6VMuoLLotZT-5" value="" style="verticalLabelPosition=bottom;shadow=0;dashed=0;align=center;html=1;verticalAlign=top;shape=mxgraph.electrical.logic_gates.logic_gate;operation=and;" vertex="1" parent="1">
          <mxGeometry x="440" y="240" width="70" height="40" as="geometry" />
        </mxCell>
        <mxCell id="R-2TuFLWC6VMuoLLotZT-13" style="edgeStyle=orthogonalEdgeStyle;rounded=1;orthogonalLoop=1;jettySize=auto;html=1;exitX=0;exitY=0.25;exitDx=0;exitDy=0;exitPerimeter=0;curved=0;endArrow=none;endFill=0;" edge="1" parent="1" source="R-2TuFLWC6VMuoLLotZT-6">
          <mxGeometry relative="1" as="geometry">
            <mxPoint x="420" y="160" as="targetPoint" />
          </mxGeometry>
        </mxCell>
        <mxCell id="R-2TuFLWC6VMuoLLotZT-14" style="edgeStyle=orthogonalEdgeStyle;rounded=1;orthogonalLoop=1;jettySize=auto;html=1;exitX=0;exitY=0.75;exitDx=0;exitDy=0;exitPerimeter=0;curved=0;endArrow=none;endFill=0;" edge="1" parent="1" source="R-2TuFLWC6VMuoLLotZT-6">
          <mxGeometry relative="1" as="geometry">
            <mxPoint x="390" y="300" as="targetPoint" />
          </mxGeometry>
        </mxCell>
        <mxCell id="R-2TuFLWC6VMuoLLotZT-6" value="" style="verticalLabelPosition=bottom;shadow=0;dashed=0;align=center;html=1;verticalAlign=top;shape=mxgraph.electrical.logic_gates.logic_gate;operation=and;" vertex="1" parent="1">
          <mxGeometry x="440" y="330" width="70" height="40" as="geometry" />
        </mxCell>
        <mxCell id="R-2TuFLWC6VMuoLLotZT-7" style="edgeStyle=orthogonalEdgeStyle;rounded=1;orthogonalLoop=1;jettySize=auto;html=1;entryX=0;entryY=0.25;entryDx=0;entryDy=0;entryPerimeter=0;endArrow=none;endFill=0;curved=0;startArrow=oval;startFill=0;" edge="1" parent="1" source="R-2TuFLWC6VMuoLLotZT-1" target="R-2TuFLWC6VMuoLLotZT-4">
          <mxGeometry relative="1" as="geometry" />
        </mxCell>
        <mxCell id="R-2TuFLWC6VMuoLLotZT-8" style="edgeStyle=orthogonalEdgeStyle;rounded=1;orthogonalLoop=1;jettySize=auto;html=1;entryX=0;entryY=0.75;entryDx=0;entryDy=0;entryPerimeter=0;curved=0;endArrow=none;endFill=0;startArrow=oval;startFill=0;" edge="1" parent="1" source="R-2TuFLWC6VMuoLLotZT-2" target="R-2TuFLWC6VMuoLLotZT-4">
          <mxGeometry relative="1" as="geometry" />
        </mxCell>
        <mxCell id="R-2TuFLWC6VMuoLLotZT-15" value="" style="verticalLabelPosition=bottom;shadow=0;dashed=0;align=center;html=1;verticalAlign=top;shape=mxgraph.electrical.logic_gates.logic_gate;operation=or;" vertex="1" parent="1">
          <mxGeometry x="570" y="230" width="100" height="60" as="geometry" />
        </mxCell>
        <mxCell id="R-2TuFLWC6VMuoLLotZT-16" style="edgeStyle=orthogonalEdgeStyle;rounded=0;orthogonalLoop=1;jettySize=auto;html=1;exitX=1;exitY=0.5;exitDx=0;exitDy=0;exitPerimeter=0;entryX=0;entryY=0.75;entryDx=0;entryDy=0;entryPerimeter=0;endArrow=none;endFill=0;" edge="1" parent="1" source="R-2TuFLWC6VMuoLLotZT-6" target="R-2TuFLWC6VMuoLLotZT-15">
          <mxGeometry relative="1" as="geometry" />
        </mxCell>
        <mxCell id="R-2TuFLWC6VMuoLLotZT-17" style="edgeStyle=orthogonalEdgeStyle;rounded=0;orthogonalLoop=1;jettySize=auto;html=1;exitX=1;exitY=0.5;exitDx=0;exitDy=0;exitPerimeter=0;entryX=0.229;entryY=0.497;entryDx=0;entryDy=0;entryPerimeter=0;endArrow=none;endFill=0;" edge="1" parent="1" source="R-2TuFLWC6VMuoLLotZT-5" target="R-2TuFLWC6VMuoLLotZT-15">
          <mxGeometry relative="1" as="geometry" />
        </mxCell>
        <mxCell id="R-2TuFLWC6VMuoLLotZT-18" style="edgeStyle=orthogonalEdgeStyle;rounded=1;orthogonalLoop=1;jettySize=auto;html=1;exitX=1;exitY=0.5;exitDx=0;exitDy=0;exitPerimeter=0;entryX=0;entryY=0.25;entryDx=0;entryDy=0;entryPerimeter=0;curved=0;endArrow=none;endFill=0;" edge="1" parent="1" source="R-2TuFLWC6VMuoLLotZT-4" target="R-2TuFLWC6VMuoLLotZT-15">
          <mxGeometry relative="1" as="geometry" />
        </mxCell>
        <mxCell id="R-2TuFLWC6VMuoLLotZT-19" value="&lt;font style=&quot;font-size: 25px;&quot;&gt;F&lt;/font&gt;" style="text;html=1;align=center;verticalAlign=middle;resizable=0;points=[];autosize=1;strokeColor=none;fillColor=none;" vertex="1" parent="1">
          <mxGeometry x="680" y="240" width="40" height="40" as="geometry" />
        </mxCell>
      </root>
    </mxGraphModel>
  </diagram>
</mxfile>
